<svg xmlns="http://www.w3.org/2000/svg" width="350" height="100" viewBox="0 0 350 100" fill="none"><path d="M0 91.7991V14.3454C1.05995 13.5936 2.34764 13.7422 3.52147 13.6461C8.46204 13.2439 13.1311 11.8627 17.695 10.0444C23.1874 7.85016 28.8288 7.57916 34.6016 8.61945C41.9861 9.94823 43.8432 15.0885 42.0737 21.8285C41.0664 25.64 38.1756 28.3151 35.5389 31.095C32.1225 34.6879 28.4258 38.1235 26.7527 42.9578C24.4927 49.4793 25.0007 55.7211 29.2493 61.4121C30.5632 63.1692 32.2977 64.3494 34.365 65.2061C34.7067 64.4281 34.0672 64.1133 33.7431 63.6588C32.578 62.0153 32.4817 59.891 33.4803 58.2825C34.0847 57.3121 34.7417 56.7002 35.8279 57.7142C36.7828 58.6059 37.869 58.7283 38.9815 58.0377C40.1641 57.3034 40.4882 56.1407 40.2604 54.8469C40.0852 53.8765 39.7787 52.9237 39.5246 51.9708C38.5172 48.2642 39.0078 44.7062 40.6108 41.2706C41.1539 40.0992 41.846 39.0065 43.4315 38.9977C43.7644 40.1954 43.3614 41.2182 43.2388 42.2585C42.976 44.3828 43.2563 46.3497 44.8419 47.9845C45.6828 48.8586 46.48 49.3919 47.5574 48.3953C48.7575 47.2851 49.616 47.9145 50.3781 48.9723C53.9434 53.9552 52.8922 62.9157 48.2845 66.8234C47.172 67.7675 45.8493 68.0122 44.4302 68.0122C40.9875 68.0035 37.5449 68.0035 34.1022 68.021C33.419 68.021 32.7007 68.021 32.0612 68.2133C30.8436 68.5805 30.1253 69.4809 30.1691 70.766C30.2041 71.9286 30.8085 72.8116 31.9824 73.135C32.762 73.3536 33.5767 73.441 34.3563 73.5809C34.4614 74.219 33.9446 74.4114 33.6993 74.7698C32.4028 76.6493 32.7182 78.7823 34.7505 79.8401C35.9506 80.4695 36.1608 81.2213 36.117 82.3665C36.0119 85.4 36.4061 88.4422 36.0557 91.6155C34.5052 91.2833 33.4102 90.2867 32.14 89.6748C26.4899 86.9473 20.796 86.7812 15.0583 89.2727C10.3279 91.327 5.3961 91.9914 0.00876844 91.7991H0Z" fill="#DF083E"></path><path d="M52.4278 91.4238V80.7935C56.0632 78.5119 56.3435 77.323 54.0046 73.5552C54.7667 73.4416 55.5201 73.4153 56.2209 73.2143C57.5261 72.8384 58.3846 71.9729 58.2707 70.548C58.1568 69.1842 57.3071 68.2488 55.9318 68.1265C54.3638 67.9953 52.7695 68.0915 50.9737 67.803C59.0503 64.2625 63.1061 58.2131 62.9923 49.5673C62.9485 45.9918 61.179 41.9268 58.4371 40.2484C57.7714 40.3358 57.64 40.8866 57.4735 41.3848C57.3334 41.8132 57.3159 42.3027 57.1056 42.6961C56.5187 43.8326 55.7303 44.9166 54.2849 44.462C53.0148 44.0599 52.7169 42.8273 52.9271 41.6209C53.1549 40.3533 53.5579 39.1119 53.8907 37.8618C54.8018 34.4962 55.0208 31.1131 54.2148 27.6862C52.9447 22.3361 49.8349 18.2012 45.6915 14.7481C44.9381 14.1187 44.1585 13.5068 43.1511 12.7025C45.7528 10.8492 48.4859 9.84389 51.3066 9.03089C57.421 7.26502 63.3602 7.85947 69.2731 10.1149C75.2649 12.3965 81.5282 13.5155 87.9404 13.839C88.685 13.8739 89.4734 13.769 90.1829 14.1712C90.5684 14.888 90.3932 15.666 90.3932 16.4178C90.402 40.6243 90.4019 64.8307 90.4019 89.0459C90.4019 91.922 90.3319 91.922 87.4499 91.8958C81.9487 91.8434 76.684 90.7331 71.5682 88.7575C66.0144 86.6157 60.6358 87.1926 55.4237 89.9551C54.5127 90.4359 53.7068 91.1702 52.4191 91.415L52.4278 91.4238Z" fill="#2B337F"></path><path d="M134.753 32.9412C134.753 34.4921 134.397 35.9159 133.685 37.2125C132.973 38.4837 131.88 39.5134 130.405 40.3016C128.931 41.0897 127.1 41.4838 124.914 41.4838H120.871V51.0942H114.35V24.3224H124.914C127.049 24.3224 128.855 24.691 130.329 25.4283C131.804 26.1656 132.91 27.1826 133.647 28.4793C134.384 29.7759 134.753 31.2632 134.753 32.9412ZM124.418 36.2972C125.664 36.2972 126.592 36.0049 127.202 35.4201C127.812 34.8353 128.117 34.009 128.117 32.9412C128.117 31.8734 127.812 31.0471 127.202 30.4624C126.592 29.8776 125.664 29.5852 124.418 29.5852H120.871V36.2972H124.418Z" fill="black"></path><path d="M158.971 40.1109C158.971 40.7211 158.932 41.3567 158.856 42.0177H144.097C144.199 43.3398 144.619 44.3567 145.356 45.0686C146.119 45.7551 147.047 46.0983 148.14 46.0983C149.767 46.0983 150.898 45.4118 151.534 44.0389H158.475C158.119 45.4373 157.471 46.6958 156.53 47.8144C155.615 48.9331 154.458 49.8102 153.059 50.4459C151.661 51.0815 150.097 51.3993 148.369 51.3993C146.284 51.3993 144.428 50.9543 142.801 50.0645C141.174 49.1746 139.902 47.9034 138.987 46.2508C138.072 44.5983 137.614 42.666 137.614 40.4541C137.614 38.2422 138.059 36.3099 138.949 34.6574C139.864 33.0048 141.135 31.7336 142.763 30.8437C144.39 29.9539 146.258 29.5089 148.369 29.5089C150.428 29.5089 152.259 29.9412 153.86 30.8056C155.462 31.67 156.708 32.9031 157.598 34.5048C158.513 36.1065 158.971 37.9752 158.971 40.1109ZM152.297 38.3947C152.297 37.2761 151.915 36.3862 151.153 35.7252C150.39 35.0642 149.436 34.7336 148.292 34.7336C147.199 34.7336 146.271 35.0514 145.508 35.687C144.771 36.3227 144.313 37.2252 144.135 38.3947H152.297Z" fill="black"></path><path d="M169.695 33.3607C170.458 32.1912 171.411 31.2759 172.555 30.6149C173.699 29.9284 174.971 29.5852 176.369 29.5852V36.4879H174.576C172.949 36.4879 171.729 36.8439 170.915 37.5557C170.102 38.2422 169.695 39.4626 169.695 41.2168V51.0942H163.174V29.814H169.695V33.3607Z" fill="black"></path><path d="M188.906 51.3993C187.05 51.3993 185.397 51.0815 183.948 50.4459C182.499 49.8102 181.355 48.9458 180.516 47.8526C179.677 46.7339 179.206 45.4881 179.105 44.1152H185.55C185.626 44.8525 185.969 45.45 186.579 45.9076C187.189 46.3653 187.939 46.5941 188.829 46.5941C189.643 46.5941 190.266 46.4415 190.698 46.1364C191.156 45.8059 191.384 45.3864 191.384 44.8779C191.384 44.2678 191.067 43.8228 190.431 43.5432C189.795 43.2381 188.766 42.9076 187.342 42.5516C185.817 42.1957 184.545 41.827 183.528 41.4457C182.511 41.0389 181.634 40.416 180.897 39.577C180.16 38.7125 179.791 37.5557 179.791 36.1066C179.791 34.8862 180.122 33.7802 180.783 32.7887C181.469 31.7717 182.461 30.9708 183.757 30.3861C185.079 29.8013 186.643 29.5089 188.448 29.5089C191.118 29.5089 193.215 30.17 194.74 31.492C196.291 32.8141 197.181 34.5684 197.41 36.7549H191.384C191.283 36.0176 190.952 35.4328 190.393 35.0006C189.859 34.5684 189.147 34.3523 188.257 34.3523C187.495 34.3523 186.91 34.5048 186.503 34.8099C186.096 35.0896 185.893 35.4837 185.893 35.9921C185.893 36.6023 186.211 37.06 186.846 37.3651C187.507 37.6701 188.524 37.9752 189.897 38.2803C191.473 38.6871 192.757 39.0939 193.749 39.5007C194.74 39.8821 195.605 40.5177 196.342 41.4075C197.105 42.2719 197.499 43.4415 197.524 44.9161C197.524 46.1619 197.169 47.2805 196.457 48.2721C195.77 49.2382 194.766 50.0009 193.444 50.5603C192.147 51.1196 190.634 51.3993 188.906 51.3993Z" fill="black"></path><path d="M208.798 32.8268C209.434 31.8353 210.311 31.0344 211.43 30.4242C212.548 29.814 213.858 29.5089 215.358 29.5089C217.112 29.5089 218.701 29.9539 220.125 30.8437C221.549 31.7336 222.667 33.0048 223.481 34.6574C224.32 36.3099 224.739 38.2295 224.739 40.416C224.739 42.6025 224.32 44.5347 223.481 46.2127C222.667 47.8653 221.549 49.1492 220.125 50.0645C218.701 50.9543 217.112 51.3993 215.358 51.3993C213.883 51.3993 212.574 51.0942 211.43 50.484C210.311 49.8738 209.434 49.0857 208.798 48.1195V61.2385H202.277V29.814H208.798V32.8268ZM218.104 40.416C218.104 38.7888 217.646 37.5176 216.731 36.6023C215.841 35.6616 214.735 35.1913 213.413 35.1913C212.116 35.1913 211.01 35.6616 210.095 36.6023C209.205 37.543 208.76 38.8269 208.76 40.4541C208.76 42.0813 209.205 43.3652 210.095 44.3059C211.01 45.2466 212.116 45.7169 213.413 45.7169C214.709 45.7169 215.815 45.2466 216.731 44.3059C217.646 43.3398 218.104 42.0431 218.104 40.416Z" fill="black"></path><path d="M248.983 40.1109C248.983 40.7211 248.945 41.3567 248.869 42.0177H234.11C234.212 43.3398 234.631 44.3567 235.368 45.0686C236.131 45.7551 237.059 46.0983 238.152 46.0983C239.779 46.0983 240.911 45.4118 241.546 44.0389H248.487C248.131 45.4373 247.483 46.6958 246.542 47.8144C245.627 48.9331 244.47 49.8102 243.072 50.4459C241.674 51.0815 240.11 51.3993 238.381 51.3993C236.296 51.3993 234.44 50.9543 232.813 50.0645C231.186 49.1746 229.915 47.9034 229 46.2508C228.084 44.5983 227.627 42.666 227.627 40.4541C227.627 38.2422 228.072 36.3099 228.961 34.6574C229.877 33.0048 231.148 31.7336 232.775 30.8437C234.402 29.9539 236.271 29.5089 238.381 29.5089C240.44 29.5089 242.271 29.9412 243.873 30.8056C245.474 31.67 246.72 32.9031 247.61 34.5048C248.525 36.1065 248.983 37.9752 248.983 40.1109ZM242.309 38.3947C242.309 37.2761 241.928 36.3862 241.165 35.7252C240.402 35.0642 239.449 34.7336 238.305 34.7336C237.212 34.7336 236.284 35.0514 235.521 35.687C234.784 36.3227 234.326 37.2252 234.148 38.3947H242.309Z" fill="black"></path><path d="M251.889 40.4541C251.889 38.2422 252.334 36.3099 253.224 34.6574C254.14 33.0048 255.398 31.7336 257 30.8437C258.627 29.9539 260.483 29.5089 262.568 29.5089C265.237 29.5089 267.462 30.2081 269.242 31.6064C271.047 33.0048 272.229 34.9752 272.788 37.5176H265.847C265.263 35.8904 264.131 35.0769 262.453 35.0769C261.258 35.0769 260.305 35.5472 259.593 36.4879C258.881 37.4032 258.525 38.7253 258.525 40.4541C258.525 42.183 258.881 43.5177 259.593 44.4584C260.305 45.3737 261.258 45.8313 262.453 45.8313C264.131 45.8313 265.263 45.0178 265.847 43.3906H272.788C272.229 45.8822 271.047 47.8399 269.242 49.2636C267.436 50.6874 265.212 51.3993 262.568 51.3993C260.483 51.3993 258.627 50.9543 257 50.0645C255.398 49.1746 254.14 47.9034 253.224 46.2508C252.334 44.5983 251.889 42.666 251.889 40.4541Z" fill="black"></path><path d="M288.9 45.5644V51.0942H285.582C283.217 51.0942 281.374 50.5221 280.052 49.378C278.73 48.2085 278.069 46.3144 278.069 43.6957V35.2294H275.476V29.814H278.069V24.6275H284.59V29.814H288.862V35.2294H284.59V43.772C284.59 44.4076 284.743 44.8652 285.048 45.1449C285.353 45.4246 285.861 45.5644 286.573 45.5644H288.9Z" fill="black"></path><path d="M296.575 27.6021C295.431 27.6021 294.49 27.2716 293.753 26.6106C293.041 25.9241 292.685 25.0851 292.685 24.0936C292.685 23.0766 293.041 22.2376 293.753 21.5766C294.49 20.8901 295.431 20.5469 296.575 20.5469C297.693 20.5469 298.609 20.8901 299.32 21.5766C300.058 22.2376 300.426 23.0766 300.426 24.0936C300.426 25.0851 300.058 25.9241 299.32 26.6106C298.609 27.2716 297.693 27.6021 296.575 27.6021ZM299.816 29.814V51.0942H293.295V29.814H299.816Z" fill="black"></path><path d="M314.877 44.9923L319.492 29.814H326.433L318.881 51.0942H310.835L303.284 29.814H310.263L314.877 44.9923Z" fill="black"></path><path d="M350 40.1109C350 40.7211 349.962 41.3567 349.886 42.0177H335.127C335.228 43.3398 335.648 44.3567 336.385 45.0686C337.148 45.7551 338.076 46.0983 339.169 46.0983C340.796 46.0983 341.928 45.4118 342.563 44.0389H349.504C349.148 45.4373 348.5 46.6958 347.559 47.8144C346.644 48.9331 345.487 49.8102 344.089 50.4459C342.69 51.0815 341.127 51.3993 339.398 51.3993C337.313 51.3993 335.457 50.9543 333.83 50.0645C332.203 49.1746 330.932 47.9034 330.016 46.2508C329.101 44.5983 328.644 42.666 328.644 40.4541C328.644 38.2422 329.088 36.3099 329.978 34.6574C330.894 33.0048 332.165 31.7336 333.792 30.8437C335.419 29.9539 337.288 29.5089 339.398 29.5089C341.457 29.5089 343.288 29.9412 344.89 30.8056C346.491 31.67 347.737 32.9031 348.627 34.5048C349.542 36.1065 350 37.9752 350 40.1109ZM343.326 38.3947C343.326 37.2761 342.945 36.3862 342.182 35.7252C341.419 35.0642 340.466 34.7336 339.322 34.7336C338.229 34.7336 337.301 35.0514 336.538 35.687C335.8 36.3227 335.343 37.2252 335.165 38.3947H343.326Z" fill="black"></path><path d="M125.188 74.851C125.188 75.2477 125.166 75.6672 125.12 76.1095H115.097C115.174 77.3452 115.593 78.3138 116.356 79.0155C117.134 79.702 118.072 80.0452 119.17 80.0452C120.07 80.0452 120.818 79.8393 121.413 79.4274C122.023 79.0003 122.45 78.4359 122.694 77.7342H124.937C124.601 78.9393 123.93 79.9232 122.923 80.6859C121.916 81.4334 120.665 81.8071 119.17 81.8071C117.981 81.8071 116.913 81.5402 115.967 81.0063C115.036 80.4724 114.304 79.7173 113.77 78.741C113.236 77.7494 112.969 76.6053 112.969 75.3087C112.969 74.012 113.229 72.8756 113.747 71.8993C114.266 70.923 114.991 70.1755 115.921 69.6569C116.867 69.1229 117.95 68.856 119.17 68.856C120.36 68.856 121.413 69.1153 122.328 69.634C123.243 70.1526 123.945 70.8696 124.433 71.7849C124.937 72.6849 125.188 73.707 125.188 74.851ZM123.038 74.4163C123.038 73.6231 122.862 72.9442 122.511 72.3798C122.16 71.8001 121.68 71.3654 121.07 71.0755C120.475 70.7704 119.811 70.6179 119.079 70.6179C118.026 70.6179 117.126 70.9535 116.379 71.6247C115.647 72.2959 115.227 73.2264 115.12 74.4163H123.038Z" fill="black"></path><path d="M130.82 64.6686V81.6012H128.738V64.6686H130.82Z" fill="black"></path><path d="M146.611 74.851C146.611 75.2477 146.588 75.6672 146.542 76.1095H136.52C136.596 77.3452 137.016 78.3138 137.778 79.0155C138.556 79.702 139.494 80.0452 140.593 80.0452C141.493 80.0452 142.24 79.8393 142.835 79.4274C143.445 79.0003 143.872 78.4359 144.117 77.7342H146.359C146.023 78.9393 145.352 79.9232 144.345 80.6859C143.339 81.4334 142.088 81.8071 140.593 81.8071C139.403 81.8071 138.335 81.5402 137.389 81.0063C136.459 80.4724 135.727 79.7173 135.193 78.741C134.659 77.7494 134.392 76.6053 134.392 75.3087C134.392 74.012 134.651 72.8756 135.17 71.8993C135.688 70.923 136.413 70.1755 137.344 69.6569C138.289 69.1229 139.372 68.856 140.593 68.856C141.783 68.856 142.835 69.1153 143.75 69.634C144.666 70.1526 145.367 70.8696 145.856 71.7849C146.359 72.6849 146.611 73.707 146.611 74.851ZM144.46 74.4163C144.46 73.6231 144.284 72.9442 143.933 72.3798C143.583 71.8001 143.102 71.3654 142.492 71.0755C141.897 70.7704 141.233 70.6179 140.501 70.6179C139.449 70.6179 138.549 70.9535 137.801 71.6247C137.069 72.2959 136.649 73.2264 136.543 74.4163H144.46Z" fill="black"></path><path d="M165.239 68.8331C166.215 68.8331 167.085 69.039 167.848 69.4509C168.61 69.8475 169.213 70.4501 169.655 71.2586C170.098 72.0671 170.319 73.051 170.319 74.2104V81.6012H168.26V74.5078C168.26 73.2569 167.947 72.3035 167.321 71.6476C166.711 70.9764 165.88 70.6408 164.827 70.6408C163.744 70.6408 162.882 70.9916 162.242 71.6933C161.601 72.3798 161.281 73.379 161.281 74.6909V81.6012H159.221V74.5078C159.221 73.2569 158.909 72.3035 158.283 71.6476C157.673 70.9764 156.842 70.6408 155.789 70.6408C154.706 70.6408 153.844 70.9916 153.203 71.6933C152.563 72.3798 152.242 73.379 152.242 74.6909V81.6012H150.16V69.0619H152.242V70.8696C152.654 70.2137 153.203 69.7103 153.89 69.3594C154.591 69.0085 155.362 68.8331 156.201 68.8331C157.253 68.8331 158.184 69.0696 158.992 69.5425C159.801 70.0153 160.403 70.7094 160.8 71.6247C161.151 70.7399 161.731 70.0535 162.539 69.5653C163.348 69.0772 164.248 68.8331 165.239 68.8331Z" fill="black"></path><path d="M185.976 74.851C185.976 75.2477 185.954 75.6672 185.908 76.1095H175.886C175.962 77.3452 176.381 78.3138 177.144 79.0155C177.922 79.702 178.86 80.0452 179.958 80.0452C180.859 80.0452 181.606 79.8393 182.201 79.4274C182.811 79.0003 183.238 78.4359 183.482 77.7342H185.725C185.389 78.9393 184.718 79.9232 183.711 80.6859C182.704 81.4334 181.453 81.8071 179.958 81.8071C178.769 81.8071 177.701 81.5402 176.755 81.0063C175.825 80.4724 175.092 79.7173 174.558 78.741C174.024 77.7494 173.758 76.6053 173.758 75.3087C173.758 74.012 174.017 72.8756 174.535 71.8993C175.054 70.923 175.779 70.1755 176.709 69.6569C177.655 69.1229 178.738 68.856 179.958 68.856C181.148 68.856 182.201 69.1153 183.116 69.634C184.031 70.1526 184.733 70.8696 185.221 71.7849C185.725 72.6849 185.976 73.707 185.976 74.851ZM183.826 74.4163C183.826 73.6231 183.65 72.9442 183.299 72.3798C182.948 71.8001 182.468 71.3654 181.858 71.0755C181.263 70.7704 180.599 70.6179 179.867 70.6179C178.814 70.6179 177.914 70.9535 177.167 71.6247C176.435 72.2959 176.015 73.2264 175.908 74.4163H183.826Z" fill="black"></path><path d="M195.635 68.8331C197.161 68.8331 198.396 69.2984 199.342 70.2289C200.288 71.1442 200.761 72.4713 200.761 74.2104V81.6012H198.701V74.5078C198.701 73.2569 198.389 72.3035 197.763 71.6476C197.138 70.9764 196.284 70.6408 195.2 70.6408C194.102 70.6408 193.225 70.984 192.569 71.6705C191.928 72.3569 191.608 73.3561 191.608 74.668V81.6012H189.526V69.0619H191.608V70.8467C192.02 70.206 192.577 69.7103 193.278 69.3594C193.995 69.0085 194.781 68.8331 195.635 68.8331Z" fill="black"></path><path d="M207.503 70.7781V78.1689C207.503 78.7791 207.633 79.2139 207.892 79.4732C208.151 79.7173 208.601 79.8393 209.242 79.8393H210.775V81.6012H208.899C207.739 81.6012 206.87 81.3342 206.29 80.8003C205.71 80.2664 205.421 79.3893 205.421 78.1689V70.7781H203.796V69.0619H205.421V65.9042H207.503V69.0619H210.775V70.7781H207.503Z" fill="black"></path><path d="M213.321 75.2858C213.321 74.0044 213.58 72.8832 214.099 71.9222C214.617 70.9459 215.327 70.1908 216.227 69.6569C217.142 69.1229 218.157 68.856 219.27 68.856C220.368 68.856 221.322 69.0924 222.13 69.5653C222.939 70.0382 223.541 70.6332 223.938 71.3501V69.0619H226.043V81.6012H223.938V79.2672C223.526 79.9995 222.908 80.6096 222.085 81.0978C221.276 81.5707 220.33 81.8071 219.247 81.8071C218.134 81.8071 217.127 81.5325 216.227 80.9834C215.327 80.4342 214.617 79.6639 214.099 78.6723C213.58 77.6808 213.321 76.5519 213.321 75.2858ZM223.938 75.3087C223.938 74.3629 223.747 73.5391 223.366 72.8374C222.985 72.1357 222.466 71.6018 221.81 71.2357C221.169 70.8543 220.46 70.6637 219.682 70.6637C218.904 70.6637 218.195 70.8467 217.554 71.2128C216.913 71.5789 216.402 72.1128 216.021 72.8146C215.639 73.5163 215.449 74.34 215.449 75.2858C215.449 76.2468 215.639 77.0858 216.021 77.8028C216.402 78.5045 216.913 79.0461 217.554 79.4274C218.195 79.7935 218.904 79.9766 219.682 79.9766C220.46 79.9766 221.169 79.7935 221.81 79.4274C222.466 79.0461 222.985 78.5045 223.366 77.8028C223.747 77.0858 223.938 76.2545 223.938 75.3087Z" fill="black"></path><path d="M232.445 71.0984C232.811 70.3815 233.33 69.8247 234.001 69.428C234.687 69.0314 235.519 68.8331 236.495 68.8331V70.984H235.946C233.612 70.984 232.445 72.2501 232.445 74.7824V81.6012H230.363V69.0619H232.445V71.0984Z" fill="black"></path><path d="M250.5 69.0619L242.949 87.5047H240.798L243.269 81.4639L238.212 69.0619H240.523L244.459 79.2215L248.349 69.0619H250.5Z" fill="black"></path><path d="M264.734 81.8071C263.773 81.8071 262.911 81.647 262.149 81.3266C261.386 80.991 260.783 80.5334 260.341 79.9537C259.899 79.3588 259.654 78.6799 259.609 77.9172H261.76C261.821 78.5427 262.11 79.0537 262.629 79.4503C263.163 79.8469 263.857 80.0452 264.711 80.0452C265.505 80.0452 266.13 79.8698 266.588 79.5189C267.045 79.1681 267.274 78.7257 267.274 78.1918C267.274 77.6426 267.03 77.2384 266.542 76.9791C266.054 76.7045 265.299 76.4375 264.277 76.1782C263.346 75.9341 262.583 75.69 261.988 75.446C261.409 75.1866 260.905 74.8129 260.478 74.3248C260.066 73.8214 259.86 73.1654 259.86 72.3569C259.86 71.7162 260.051 71.1289 260.432 70.595C260.814 70.0611 261.355 69.6416 262.057 69.3365C262.759 69.0162 263.56 68.856 264.46 68.856C265.848 68.856 266.969 69.2069 267.823 69.9086C268.678 70.6103 269.135 71.5713 269.196 72.7917H267.114C267.068 72.1357 266.801 71.6094 266.313 71.2128C265.84 70.8162 265.199 70.6179 264.391 70.6179C263.644 70.6179 263.049 70.7781 262.606 71.0984C262.164 71.4188 261.943 71.8383 261.943 72.3569C261.943 72.7688 262.072 73.112 262.332 73.3866C262.606 73.6459 262.942 73.8595 263.338 74.0273C263.75 74.1798 264.315 74.3553 265.032 74.5536C265.932 74.7977 266.664 75.0417 267.228 75.2858C267.793 75.5146 268.273 75.8655 268.67 76.3384C269.082 76.8113 269.295 77.4291 269.311 78.1918C269.311 78.8783 269.12 79.4961 268.739 80.0452C268.357 80.5944 267.816 81.0292 267.114 81.3495C266.427 81.6546 265.634 81.8071 264.734 81.8071Z" fill="black"></path><path d="M272.273 75.3087C272.273 74.012 272.532 72.8832 273.051 71.9222C273.57 70.9459 274.287 70.1908 275.202 69.6569C276.132 69.1229 277.193 68.856 278.382 68.856C279.923 68.856 281.189 69.2297 282.181 69.9772C283.188 70.7247 283.851 71.762 284.171 73.0891H281.929C281.715 72.3264 281.296 71.7239 280.671 71.2815C280.06 70.8391 279.298 70.6179 278.382 70.6179C277.193 70.6179 276.231 71.0298 275.499 71.8535C274.767 72.662 274.401 73.8137 274.401 75.3087C274.401 76.8189 274.767 77.9859 275.499 78.8096C276.231 79.6334 277.193 80.0452 278.382 80.0452C279.298 80.0452 280.06 79.8317 280.671 79.4045C281.281 78.9774 281.7 78.3672 281.929 77.574H284.171C283.836 78.8554 283.165 79.8851 282.158 80.663C281.151 81.4258 279.893 81.8071 278.382 81.8071C277.193 81.8071 276.132 81.5402 275.202 81.0063C274.287 80.4724 273.57 79.7173 273.051 78.741C272.532 77.7647 272.273 76.6206 272.273 75.3087Z" fill="black"></path><path d="M293.975 68.8331C294.92 68.8331 295.775 69.039 296.537 69.4509C297.3 69.8475 297.895 70.4501 298.322 71.2586C298.765 72.0671 298.986 73.051 298.986 74.2104V81.6012H296.926V74.5078C296.926 73.2569 296.614 72.3035 295.988 71.6476C295.363 70.9764 294.508 70.6408 293.425 70.6408C292.327 70.6408 291.45 70.984 290.794 71.6705C290.153 72.3569 289.833 73.3561 289.833 74.668V81.6012H287.751V64.6686H289.833V70.8467C290.245 70.206 290.809 69.7103 291.526 69.3594C292.258 69.0085 293.075 68.8331 293.975 68.8331Z" fill="black"></path><path d="M308.657 81.8071C307.482 81.8071 306.414 81.5402 305.453 81.0063C304.507 80.4724 303.76 79.7173 303.211 78.741C302.677 77.7494 302.41 76.6053 302.41 75.3087C302.41 74.0273 302.685 72.8985 303.234 71.9222C303.798 70.9306 304.561 70.1755 305.522 69.6569C306.483 69.1229 307.558 68.856 308.748 68.856C309.938 68.856 311.014 69.1229 311.975 69.6569C312.936 70.1755 313.691 70.923 314.24 71.8993C314.804 72.8756 315.086 74.012 315.086 75.3087C315.086 76.6053 314.797 77.7494 314.217 78.741C313.653 79.7173 312.882 80.4724 311.906 81.0063C310.93 81.5402 309.847 81.8071 308.657 81.8071ZM308.657 79.9766C309.404 79.9766 310.106 79.8012 310.762 79.4503C311.418 79.0994 311.944 78.5732 312.341 77.8715C312.753 77.1697 312.958 76.3155 312.958 75.3087C312.958 74.3019 312.76 73.4476 312.364 72.7459C311.967 72.0442 311.448 71.5255 310.808 71.1899C310.167 70.8391 309.473 70.6637 308.725 70.6637C307.963 70.6637 307.261 70.8391 306.62 71.1899C305.995 71.5255 305.491 72.0442 305.11 72.7459C304.729 73.4476 304.538 74.3019 304.538 75.3087C304.538 76.3307 304.721 77.1926 305.087 77.8943C305.468 78.596 305.972 79.1223 306.597 79.4732C307.223 79.8088 307.909 79.9766 308.657 79.9766Z" fill="black"></path><path d="M324.094 81.8071C322.919 81.8071 321.851 81.5402 320.89 81.0063C319.945 80.4724 319.197 79.7173 318.648 78.741C318.114 77.7494 317.847 76.6053 317.847 75.3087C317.847 74.0273 318.122 72.8985 318.671 71.9222C319.235 70.9306 319.998 70.1755 320.959 69.6569C321.92 69.1229 322.996 68.856 324.185 68.856C325.375 68.856 326.451 69.1229 327.412 69.6569C328.373 70.1755 329.128 70.923 329.677 71.8993C330.242 72.8756 330.524 74.012 330.524 75.3087C330.524 76.6053 330.234 77.7494 329.654 78.741C329.09 79.7173 328.319 80.4724 327.343 81.0063C326.367 81.5402 325.284 81.8071 324.094 81.8071ZM324.094 79.9766C324.841 79.9766 325.543 79.8012 326.199 79.4503C326.855 79.0994 327.381 78.5732 327.778 77.8715C328.19 77.1697 328.396 76.3155 328.396 75.3087C328.396 74.3019 328.197 73.4476 327.801 72.7459C327.404 72.0442 326.885 71.5255 326.245 71.1899C325.604 70.8391 324.91 70.6637 324.163 70.6637C323.4 70.6637 322.698 70.8391 322.057 71.1899C321.432 71.5255 320.929 72.0442 320.547 72.7459C320.166 73.4476 319.975 74.3019 319.975 75.3087C319.975 76.3307 320.158 77.1926 320.524 77.8943C320.906 78.596 321.409 79.1223 322.035 79.4732C322.66 79.8088 323.346 79.9766 324.094 79.9766Z" fill="black"></path><path d="M336.145 64.6686V81.6012H334.062V64.6686H336.145Z" fill="black"></path><path d="M344.933 81.8071C343.972 81.8071 343.11 81.647 342.348 81.3266C341.585 80.991 340.982 80.5334 340.54 79.9537C340.098 79.3588 339.854 78.6799 339.808 77.9172H341.959C342.02 78.5427 342.31 79.0537 342.828 79.4503C343.362 79.8469 344.056 80.0452 344.911 80.0452C345.704 80.0452 346.329 79.8698 346.787 79.5189C347.244 79.1681 347.473 78.7257 347.473 78.1918C347.473 77.6426 347.229 77.2384 346.741 76.9791C346.253 76.7045 345.498 76.4375 344.476 76.1782C343.545 75.9341 342.782 75.69 342.188 75.446C341.608 75.1866 341.105 74.8129 340.677 74.3248C340.266 73.8214 340.06 73.1654 340.06 72.3569C340.06 71.7162 340.25 71.1289 340.632 70.595C341.013 70.0611 341.555 69.6416 342.256 69.3365C342.958 69.0162 343.759 68.856 344.659 68.856C346.047 68.856 347.168 69.2069 348.022 69.9086C348.877 70.6103 349.334 71.5713 349.395 72.7917H347.313C347.267 72.1357 347 71.6094 346.512 71.2128C346.039 70.8162 345.399 70.6179 344.59 70.6179C343.843 70.6179 343.248 70.7781 342.805 71.0984C342.363 71.4188 342.142 71.8383 342.142 72.3569C342.142 72.7688 342.271 73.112 342.531 73.3866C342.805 73.6459 343.141 73.8595 343.538 74.0273C343.949 74.1798 344.514 74.3553 345.231 74.5536C346.131 74.7977 346.863 75.0417 347.428 75.2858C347.992 75.5146 348.472 75.8655 348.869 76.3384C349.281 76.8113 349.495 77.4291 349.51 78.1918C349.51 78.8783 349.319 79.4961 348.938 80.0452C348.556 80.5944 348.015 81.0292 347.313 81.3495C346.627 81.6546 345.833 81.8071 344.933 81.8071Z" fill="black"></path></svg>